<mxfile host="drawio-plugin" modified="2021-05-07T07:41:11.942Z" agent="5.0 (Macintosh; Intel Mac OS X 10_16_0) AppleWebKit/537.36 (KHTML, like Gecko) Chrome/84.0.4147.105 Safari/537.36" version="13.7.9" etag="Bci3yrFP4sx1k7qtlQET" type="embed"><diagram id="1774bgAtFHEbb3ThBbWV" name="Page-1"><mxGraphModel dx="612" dy="557" grid="1" gridSize="10" guides="1" tooltips="1" connect="1" arrows="1" fold="1" page="1" pageScale="1" pageWidth="850" pageHeight="1100" math="0" shadow="0"><root><mxCell id="0"/><mxCell id="1" parent="0"/><mxCell id="2" value="Application" style="shape=module;align=left;spacingLeft=20;align=center;verticalAlign=top;dashed=1;dashPattern=1 1;" vertex="1" parent="1"><mxGeometry x="139" y="274" width="591" height="147" as="geometry"/></mxCell><mxCell id="3" value="Domin" style="shape=module;align=left;spacingLeft=20;align=center;verticalAlign=top;dashed=1;dashPattern=1 1;" vertex="1" parent="1"><mxGeometry x="205" y="475.75" width="753" height="130" as="geometry"/></mxCell><mxCell id="4" value="UI" style="shape=module;align=left;spacingLeft=20;align=center;verticalAlign=top;" vertex="1" parent="1"><mxGeometry x="34" y="51" width="589" height="151" as="geometry"/></mxCell><mxCell id="5" value="Module" style="shape=module;align=left;spacingLeft=20;align=center;verticalAlign=top;" vertex="1" parent="1"><mxGeometry x="445" y="681" width="634" height="137" as="geometry"/></mxCell><mxCell id="6" value="Database" style="shape=module;align=left;spacingLeft=20;align=center;verticalAlign=top;" vertex="1" parent="1"><mxGeometry x="323" y="948" width="671" height="163" as="geometry"/></mxCell><mxCell id="7" value="Client UI" style="shape=folder;fontStyle=1;spacingTop=10;tabWidth=40;tabHeight=14;tabPosition=left;html=1;" vertex="1" parent="1"><mxGeometry x="79" y="83.5" width="120.4" height="86" as="geometry"/></mxCell><mxCell id="8" value="Administrator UI" style="shape=folder;fontStyle=1;spacingTop=10;tabWidth=40;tabHeight=14;tabPosition=left;html=1;" vertex="1" parent="1"><mxGeometry x="244" y="86" width="125.75" height="83.5" as="geometry"/></mxCell><mxCell id="9" value="Client&lt;span style=&quot;color: rgba(0 , 0 , 0 , 0) ; font-family: monospace ; font-size: 0px ; font-weight: 400&quot;&gt;%3CmxGraphModel%3E%3Croot%3E%3CmxCell%20id%3D%220%22%2F%3E%3CmxCell%20id%3D%221%22%20parent%3D%220%22%2F%3E%3CmxCell%20id%3D%222%22%20value%3D%22Client%26amp%3Bnbsp%3B%26lt%3Bspan%20style%3D%26quot%3Bcolor%3A%20rgba(0%20%2C%200%20%2C%200%20%2C%200)%20%3B%20font-family%3A%20monospace%20%3B%20font-size%3A%200px%20%3B%20font-weight%3A%20400%26quot%3B%26gt%3B%253CmxGraphModel%253E%253Croot%253E%253CmxCell%2520id%253D%25220%2522%252F%253E%253CmxCell%2520id%253D%25221%2522%2520parent%253D%25220%2522%252F%253E%253CmxCell%2520id%253D%25222%2522%2520value%253D%2522Use%2522%2520style%253D%2522endArrow%253Dopen%253BendSize%253D12%253Bdashed%253D1%253Bhtml%253D1%253BexitX%253D0.079%253BexitY%253D1.007%253BexitDx%253D0%253BexitDy%253D0%253BexitPerimeter%253D0%253BentryX%253D0.08%253BentryY%253D0.009%253BentryDx%253D0%253BentryDy%253D0%253BentryPerimeter%253D0%253BedgeStyle%253DorthogonalEdgeStyle%253Bcurved%253D1%253B%2522%2520edge%253D%25221%2522%2520parent%253D%25221%2522%253E%253CmxGeometry%2520width%253D%2522160%2522%2520relative%253D%25221%2522%2520as%253D%2522geometry%2522%253E%253CmxPoint%2520x%253D%2522152.53099999999995%2522%2520y%253D%2522200.05700000000002%2522%2520as%253D%2522sourcePoint%2522%252F%253E%253CmxPoint%2520x%253D%2522422.28%2522%2520y%253D%2522245.96299999999997%2522%2520as%253D%2522targetPoint%2522%252F%253E%253C%252FmxGeometry%253E%253C%252FmxCell%253E%253C%252Froot%253E%253C%252FmxGraphModel%253E%26lt%3B%2Fspan%26gt%3B%26lt%3Bbr%26gt%3Bcontrol%22%20style%3D%22shape%3Dfolder%3BfontStyle%3D1%3BspacingTop%3D10%3BtabWidth%3D40%3BtabHeight%3D14%3BtabPosition%3Dleft%3Bhtml%3D1%3Bdashed%3D1%3BdashPattern%3D1%201%3B%22%20vertex%3D%221%22%20parent%3D%221%22%3E%3CmxGeometry%20x%3D%22182%22%20y%3D%22297%22%20width%3D%22141%22%20height%3D%2281%22%20as%3D%22geometry%22%2F%3E%3C%2FmxCell%3E%3C%2Froot%3E%3C%2FmxGraphModel%3E&lt;/span&gt;" style="shape=folder;fontStyle=1;spacingTop=10;tabWidth=40;tabHeight=14;tabPosition=left;html=1;" vertex="1" parent="1"><mxGeometry x="270" y="492" width="123" height="91.5" as="geometry"/></mxCell><mxCell id="10" value="PaymentCalculator" style="shape=folder;fontStyle=1;spacingTop=10;tabWidth=40;tabHeight=14;tabPosition=left;html=1;" vertex="1" parent="1"><mxGeometry x="512.38" y="709" width="123" height="91.5" as="geometry"/></mxCell><mxCell id="11" value="RantSystem" style="shape=folder;fontStyle=1;spacingTop=10;tabWidth=40;tabHeight=14;tabPosition=left;html=1;" vertex="1" parent="1"><mxGeometry x="679" y="709" width="135" height="90.75" as="geometry"/></mxCell><mxCell id="12" value="InformationTransfer" style="shape=folder;fontStyle=1;spacingTop=10;tabWidth=40;tabHeight=14;tabPosition=left;html=1;" vertex="1" parent="1"><mxGeometry x="858" y="709" width="135" height="90.75" as="geometry"/></mxCell><mxCell id="13" value="Use" style="endArrow=open;endSize=12;dashed=1;html=1;exitX=0.079;exitY=1.007;exitDx=0;exitDy=0;exitPerimeter=0;entryX=0.08;entryY=0.009;entryDx=0;entryDy=0;entryPerimeter=0;edgeStyle=orthogonalEdgeStyle;curved=1;" edge="1" parent="1" source="4" target="2"><mxGeometry width="160" relative="1" as="geometry"><mxPoint x="15" y="279" as="sourcePoint"/><mxPoint x="175" y="279" as="targetPoint"/></mxGeometry></mxCell><mxCell id="14" value="Use" style="endArrow=open;endSize=12;dashed=1;html=1;exitX=0.14;exitY=0.989;exitDx=0;exitDy=0;exitPerimeter=0;entryX=0.138;entryY=-0.006;entryDx=0;entryDy=0;entryPerimeter=0;edgeStyle=orthogonalEdgeStyle;curved=1;" edge="1" parent="1" source="5" target="6"><mxGeometry width="160" relative="1" as="geometry"><mxPoint x="328.99799999999993" y="500.997" as="sourcePoint"/><mxPoint x="503.4150000000001" y="604.5840000000001" as="targetPoint"/></mxGeometry></mxCell><mxCell id="15" style="edgeStyle=orthogonalEdgeStyle;rounded=0;orthogonalLoop=1;jettySize=auto;html=1;curved=1;" edge="1" parent="1" source="16" target="19"><mxGeometry relative="1" as="geometry"/></mxCell><mxCell id="16" value="text&amp;nbsp;&lt;br&gt;receive&lt;br&gt;payment&lt;br&gt;" style="shape=note;whiteSpace=wrap;html=1;size=14;verticalAlign=top;align=left;spacingTop=-6;dashed=1;dashPattern=1 1;" vertex="1" parent="1"><mxGeometry x="840" y="254" width="100" height="70" as="geometry"/></mxCell><mxCell id="17" value="JDBC" style="shape=folder;fontStyle=1;spacingTop=10;tabWidth=40;tabHeight=14;tabPosition=left;html=1;" vertex="1" parent="1"><mxGeometry x="432" y="972" width="123" height="91.5" as="geometry"/></mxCell><mxCell id="18" value="Dao" style="shape=folder;fontStyle=1;spacingTop=10;tabWidth=40;tabHeight=14;tabPosition=left;html=1;" vertex="1" parent="1"><mxGeometry x="627" y="972" width="123" height="91.5" as="geometry"/></mxCell><mxCell id="19" value="Documentation" style="shape=folder;fontStyle=1;spacingTop=10;tabWidth=40;tabHeight=14;tabPosition=left;html=1;" vertex="1" parent="1"><mxGeometry x="551" y="320" width="125.75" height="83.5" as="geometry"/></mxCell><mxCell id="20" value="Use" style="endArrow=open;endSize=12;dashed=1;html=1;entryX=0.25;entryY=0;entryDx=0;entryDy=0;edgeStyle=orthogonalEdgeStyle;curved=1;" edge="1" parent="1" source="2" target="3"><mxGeometry width="160" relative="1" as="geometry"><mxPoint x="-1.999000000000052" y="356.997" as="sourcePoint"/><mxPoint x="267.75" y="402.90299999999996" as="targetPoint"/></mxGeometry></mxCell><mxCell id="21" value="Client&amp;nbsp;&lt;span style=&quot;color: rgba(0, 0, 0, 0); font-family: monospace; font-size: 0px;&quot;&gt;%3CmxGraphModel%3E%3Croot%3E%3CmxCell%20id%3D%220%22%2F%3E%3CmxCell%20id%3D%221%22%20parent%3D%220%22%2F%3E%3CmxCell%20id%3D%222%22%20value%3D%22Use%22%20style%3D%22endArrow%3Dopen%3BendSize%3D12%3Bdashed%3D1%3Bhtml%3D1%3BexitX%3D0.079%3BexitY%3D1.007%3BexitDx%3D0%3BexitDy%3D0%3BexitPerimeter%3D0%3BentryX%3D0.08%3BentryY%3D0.009%3BentryDx%3D0%3BentryDy%3D0%3BentryPerimeter%3D0%3BedgeStyle%3DorthogonalEdgeStyle%3Bcurved%3D1%3B%22%20edge%3D%221%22%20parent%3D%221%22%3E%3CmxGeometry%20width%3D%22160%22%20relative%3D%221%22%20as%3D%22geometry%22%3E%3CmxPoint%20x%3D%22152.53099999999995%22%20y%3D%22200.05700000000002%22%20as%3D%22sourcePoint%22%2F%3E%3CmxPoint%20x%3D%22422.28%22%20y%3D%22245.96299999999997%22%20as%3D%22targetPoint%22%2F%3E%3C%2FmxGeometry%3E%3C%2FmxCell%3E%3C%2Froot%3E%3C%2FmxGraphModel%3E&lt;/span&gt;&lt;br&gt;control" style="shape=folder;fontStyle=0;spacingTop=10;tabWidth=40;tabHeight=14;tabPosition=left;html=1;dashed=1;dashPattern=1 1;" vertex="1" parent="1"><mxGeometry x="182" y="316" width="141" height="81" as="geometry"/></mxCell><mxCell id="22" value="Administrator&amp;nbsp;&lt;span style=&quot;color: rgba(0 , 0 , 0 , 0) ; font-family: monospace ; font-size: 0px ; font-weight: 400&quot;&gt;%3CmxGraphModel%3E%3Croot%3E%3CmxCell%20id%3D%220%22%2F%3E%3CmxCell%20id%3D%221%22%20parent%3D%220%22%2F%3E%3CmxCell%20id%3D%222%22%20value%3D%22Use%22%20style%3D%22endArrow%3Dopen%3BendSize%3D12%3Bdashed%3D1%3Bhtml%3D1%3BexitX%3D0.079%3BexitY%3D1.007%3BexitDx%3D0%3BexitDy%3D0%3BexitPerimeter%3D0%3BentryX%3D0.08%3BentryY%3D0.009%3BentryDx%3D0%3BentryDy%3D0%3BentryPerimeter%3D0%3BedgeStyle%3DorthogonalEdgeStyle%3Bcurved%3D1%3B%22%20edge%3D%221%22%20parent%3D%221%22%3E%3CmxGeometry%20width%3D%22160%22%20relative%3D%221%22%20as%3D%22geometry%22%3E%3CmxPoint%20x%3D%22152.53099999999995%22%20y%3D%22200.05700000000002%22%20as%3D%22sourcePoint%22%2F%3E%3CmxPoint%20x%3D%22422.28%22%20y%3D%22245.96299999999997%22%20as%3D%22targetPoint%22%2F%3E%3C%2FmxGeometry%3E%3C%2FmxCell%3E%3C%2Froot%3E%3C%2FmxGraphModel%3E&lt;/span&gt;&lt;br&gt;control" style="shape=folder;fontStyle=1;spacingTop=10;tabWidth=40;tabHeight=14;tabPosition=left;html=1;dashed=1;dashPattern=1 1;" vertex="1" parent="1"><mxGeometry x="368" y="316" width="141" height="81" as="geometry"/></mxCell><mxCell id="23" value="Use" style="endArrow=open;endSize=12;dashed=1;html=1;entryX=0.25;entryY=0;entryDx=0;entryDy=0;edgeStyle=orthogonalEdgeStyle;curved=1;exitX=0.25;exitY=1;exitDx=0;exitDy=0;" edge="1" parent="1" source="3" target="5"><mxGeometry width="160" relative="1" as="geometry"><mxPoint x="184.7" y="546" as="sourcePoint"/><mxPoint x="354.95" y="612" as="targetPoint"/></mxGeometry></mxCell><mxCell id="24" value="consoleUI" style="shape=folder;fontStyle=1;spacingTop=10;tabWidth=40;tabHeight=14;tabPosition=left;html=1;" vertex="1" parent="1"><mxGeometry x="414" y="86" width="120.4" height="86" as="geometry"/></mxCell><mxCell id="25" value="this is for administrator change the price or some basic info.&lt;br&gt;because i am just thinking separate the administrator make order or change important info for security." style="shape=note;whiteSpace=wrap;html=1;size=14;verticalAlign=top;align=left;spacingTop=-6;" vertex="1" parent="1"><mxGeometry x="748" y="15" width="100" height="162" as="geometry"/></mxCell><mxCell id="26" style="edgeStyle=orthogonalEdgeStyle;rounded=0;orthogonalLoop=1;jettySize=auto;html=1;entryX=0;entryY=0.5;entryDx=0;entryDy=0;entryPerimeter=0;curved=1;dashed=1;dashPattern=1 1;" edge="1" parent="1" source="24" target="25"><mxGeometry relative="1" as="geometry"><Array as="points"><mxPoint x="665" y="158"/><mxPoint x="665" y="65"/><mxPoint x="717" y="65"/><mxPoint x="717" y="96"/></Array></mxGeometry></mxCell><mxCell id="27" value="Payment" style="shape=folder;fontStyle=1;spacingTop=10;tabWidth=40;tabHeight=14;tabPosition=left;html=1;" vertex="1" parent="1"><mxGeometry x="643" y="495" width="123" height="91.5" as="geometry"/></mxCell><mxCell id="28" value="Product" style="shape=folder;fontStyle=1;spacingTop=10;tabWidth=40;tabHeight=14;tabPosition=left;html=1;" vertex="1" parent="1"><mxGeometry x="424" y="492" width="123" height="91.5" as="geometry"/></mxCell><mxCell id="29" value="RalativeOutSide" style="shape=folder;fontStyle=1;spacingTop=10;tabWidth=40;tabHeight=14;tabPosition=left;html=1;" vertex="1" parent="1"><mxGeometry x="817" y="495" width="123" height="91.5" as="geometry"/></mxCell></root></mxGraphModel></diagram></mxfile>